<?xml version="1.0" standalone="no"?>
<!DOCTYPE svg PUBLIC "-//W3C//DTD SVG 20010904//EN"
 "http://www.w3.org/TR/2001/REC-SVG-20010904/DTD/svg10.dtd">
<svg version="1.0" xmlns="http://www.w3.org/2000/svg"
 width="188.000000pt" height="188.000000pt" viewBox="0 0 188.000000 188.000000"
 preserveAspectRatio="xMidYMid meet">
<metadata>
Created by potrace 1.14, written by Peter Selinger 2001-2017
</metadata>
<g transform="translate(0.000000,188.000000) scale(0.100000,-0.100000)"
fill="#000000" stroke="none">
<path d="M1222 1627 c-5 -7 -17 -27 -26 -44 -14 -28 -14 -33 -2 -33 8 0 18 5
21 10 3 6 11 10 16 10 6 0 7 -4 4 -10 -3 -5 1 -10 9 -10 8 0 20 8 25 18 10 16
10 16 11 0 0 -10 5 -18 10 -18 6 0 10 20 10 45 0 47 -12 55 -38 25 -8 -8 -11
-10 -8 -4 8 16 -20 26 -32 11z"/>
<path d="M607 1601 c-8 -31 11 -51 47 -51 36 0 51 19 41 51 -9 27 -81 27 -88
0z m47 -19 c3 -5 -1 -9 -9 -9 -8 0 -15 4 -15 9 0 4 4 8 9 8 6 0 12 -4 15 -8z
m36 4 c0 -3 -4 -8 -10 -11 -5 -3 -10 -1 -10 4 0 6 5 11 10 11 6 0 10 -2 10 -4z"/>
<path d="M739 1609 c-12 -8 -11 -12 6 -25 14 -11 15 -14 5 -12 -9 2 -16 -1
-17 -7 0 -5 9 -10 20 -10 27 0 35 31 10 39 -11 3 -9 4 7 3 14 -1 26 -8 26 -14
1 -7 2 -18 3 -24 0 -7 12 3 24 22 25 36 27 49 4 31 -8 -7 -17 -9 -20 -5 -11
11 -53 12 -68 2z"/>
<path d="M852 1608 c-6 -6 -12 -23 -12 -37 1 -24 2 -25 14 -8 10 12 15 14 18
6 6 -18 48 -19 48 -2 0 11 4 11 17 -3 16 -15 17 -15 24 2 6 16 8 16 8 2 1 -12
9 -16 35 -14 19 1 38 5 42 9 4 4 14 1 22 -6 13 -10 15 -9 10 10 -4 13 -2 26 3
29 17 10 9 19 -16 19 -20 0 -25 -5 -23 -20 2 -16 -3 -20 -27 -22 -17 -1 -22 1
-11 4 15 4 16 7 5 14 -11 7 -11 9 4 9 9 0 17 4 17 9 0 14 -45 7 -52 -9 -5 -12
-7 -10 -8 5 -1 20 -1 20 -15 1 -8 -11 -15 -15 -15 -9 0 18 -48 22 -56 4 -5
-14 -7 -14 -13 2 -5 14 -9 15 -19 5z m55 -30 c-3 -8 -6 -5 -6 6 -1 11 2 17 5
13 3 -3 4 -12 1 -19z"/>
<path d="M1183 1534 c6 -7 107 -7 114 -1 2 3 -23 6 -57 6 -34 0 -60 -2 -57 -5z"/>
<path d="M675 1491 c-3 -5 -2 -12 3 -15 5 -3 9 1 9 9 0 17 -3 19 -12 6z"/>
<path d="M753 1485 c0 -8 4 -12 9 -9 5 3 6 10 3 15 -9 13 -12 11 -12 -6z"/>
<path d="M848 1481 c4 -10 7 -11 10 -3 2 7 8 10 12 7 5 -3 11 -2 14 3 2 4 -6
8 -19 8 -16 0 -21 -4 -17 -15z"/>
<path d="M925 1489 c-4 -6 -4 -13 -1 -16 3 -4 6 -1 6 6 0 8 6 11 16 7 8 -3 12
-2 9 4 -8 13 -22 13 -30 -1z"/>
<path d="M973 1483 c0 -10 4 -10 16 -1 9 7 18 13 20 15 2 1 -5 1 -16 0 -11 0
-20 -7 -20 -14z"/>
<path d="M1110 1491 c0 -5 5 -13 10 -16 6 -3 10 -2 10 4 0 5 -4 13 -10 16 -5
3 -10 2 -10 -4z"/>
<path d="M1173 1485 c0 -8 4 -12 9 -9 5 3 6 10 3 15 -9 13 -12 11 -12 -6z"/>
<path d="M1215 1489 c-4 -5 -4 -13 -1 -16 3 -4 6 0 6 8 0 11 2 11 10 -1 6 -9
10 -10 10 -3 0 17 -17 25 -25 12z"/>
<path d="M1256 1478 c3 -5 10 -6 15 -3 13 9 11 12 -6 12 -8 0 -12 -4 -9 -9z"/>
<path d="M180 1433 c0 -9 -5 -11 -12 -7 -7 4 -10 4 -6 -1 4 -4 3 -14 -4 -22
-9 -11 -8 -13 2 -11 7 2 15 -3 18 -11 2 -8 0 -11 -5 -8 -5 3 -9 -4 -10 -16 0
-12 1 -16 4 -9 3 6 9 12 14 12 6 0 5 -8 -1 -20 -6 -11 -16 -18 -23 -15 -7 4
-3 -1 7 -9 21 -17 30 -59 12 -53 -6 2 -10 13 -8 23 2 15 1 16 -7 5 -10 -16 -4
-41 11 -41 6 0 5 -7 -2 -15 -11 -13 -10 -15 6 -9 16 5 16 3 -3 -14 l-22 -20
21 -5 c16 -5 19 -11 16 -32 -3 -14 -3 -23 0 -20 3 3 17 -5 31 -17 21 -18 23
-19 10 -3 -27 34 -33 51 -10 27 27 -27 35 -63 18 -74 -9 -6 -9 -8 0 -8 8 0 12
-19 11 -59 -2 -58 -1 -59 51 -110 30 -29 61 -51 70 -49 19 4 22 33 6 68 -13
28 -14 59 -2 77 4 6 3 14 -3 18 -6 4 -8 11 -5 16 4 5 1 9 -6 9 -7 0 -5 6 6 14
16 12 19 28 19 129 1 109 0 117 -21 133 -13 9 -23 22 -23 28 0 6 5 4 10 -4 5
-8 10 -10 10 -4 0 11 -47 59 -58 59 -4 0 -6 6 -5 15 2 9 0 10 -3 3 -3 -7 -10
-13 -15 -13 -6 0 -8 4 -5 8 7 12 -43 46 -70 48 -15 0 -24 -5 -24 -13z m156
-90 c-7 -7 -26 7 -26 19 0 6 6 6 15 -2 9 -7 13 -15 11 -17z"/>
<path d="M1621 1429 c-11 -10 -24 -19 -29 -19 -5 0 -17 -10 -28 -22 l-19 -23
25 20 24 20 -24 -32 c-24 -30 -50 -47 -34 -21 4 7 3 8 -4 4 -6 -4 -9 -13 -6
-20 3 -8 0 -17 -7 -22 -8 -4 -10 -3 -5 4 4 7 2 12 -3 12 -6 0 -11 -9 -11 -19
0 -11 -5 -23 -10 -26 -6 -4 -8 -11 -5 -16 4 -5 0 -9 -7 -9 -8 0 -9 -3 -3 -8
11 -8 15 -112 4 -112 -4 0 -10 -7 -13 -16 -5 -13 -3 -14 7 -6 10 8 13 6 13 -9
0 -13 -5 -18 -16 -14 -12 4 -11 2 2 -8 15 -12 15 -14 0 -25 -15 -10 -15 -11
-1 -6 22 7 31 -9 35 -62 2 -32 -1 -42 -9 -37 -8 4 -8 1 1 -9 10 -13 10 -19 -2
-31 -8 -8 -13 -23 -11 -33 2 -10 4 -25 4 -31 3 -48 126 66 133 123 2 19 -1 36
-7 38 -5 2 -4 5 3 5 10 1 10 6 2 21 -8 14 -8 20 0 20 6 0 9 4 6 9 -8 12 14 71
26 71 6 0 4 -8 -3 -17 -12 -16 -12 -17 2 -6 9 7 20 9 25 5 4 -4 3 0 -4 9 -9
12 -8 20 4 38 9 12 13 28 10 36 -2 7 0 16 7 19 7 2 8 5 2 5 -6 1 -9 42 -8 106
1 58 -1 105 -5 106 -4 0 -15 2 -24 4 -9 2 -26 -6 -37 -16z"/>
<path d="M429 1391 c-5 -152 8 -241 33 -241 5 0 8 -54 8 -119 0 -100 3 -120
16 -125 13 -5 14 -9 5 -20 -9 -11 -9 -16 0 -22 8 -4 9 -3 5 4 -10 17 9 15 24
-3 6 -8 8 -20 4 -26 -4 -8 -3 -9 4 -5 13 8 15 -6 13 -102 -1 -42 2 -62 8 -57
7 3 8 0 5 -9 -3 -9 -1 -16 6 -16 6 0 8 -4 5 -10 -3 -5 2 -10 12 -10 15 0 16
-2 3 -10 -13 -8 -13 -10 2 -10 12 0 16 -5 11 -17 -3 -10 -3 -15 2 -11 4 4 16
3 26 -2 9 -6 35 -12 56 -14 44 -4 125 -34 135 -50 4 -7 52 -11 120 -12 100 -1
118 2 159 23 44 22 68 31 114 38 11 2 21 4 23 5 2 2 21 5 54 9 6 0 9 4 5 7 -3
4 2 14 11 23 12 10 12 13 2 6 -8 -5 -1 6 16 25 29 33 31 39 28 110 -2 76 11
112 55 148 12 10 15 35 15 122 0 61 4 110 8 110 4 0 5 6 2 14 -3 7 1 20 8 27
17 17 32 51 29 64 -7 28 -8 74 -2 70 4 -2 8 2 8 10 0 8 -3 15 -7 15 -3 0 -6 9
-7 20 -1 11 3 20 9 20 7 0 7 4 0 13 -6 6 -11 17 -11 22 -1 6 -53 11 -131 11
-113 2 -132 0 -143 -15 -9 -14 -29 -18 -90 -19 -62 -2 -81 -6 -97 -22 -22 -22
-40 -26 -40 -9 0 8 -4 8 -14 0 -17 -14 -46 -4 -46 16 0 8 -4 12 -9 8 -5 -3
-13 -1 -16 5 -5 8 -11 8 -19 1 -7 -6 -15 -8 -19 -5 -3 3 -27 6 -54 6 -32 0
-55 5 -68 18 -17 15 -38 18 -147 17 l-128 0 -1 -26z"/>
<path d="M1709 1363 c-13 -16 -12 -17 4 -4 9 7 17 15 17 17 0 8 -8 3 -21 -13z"/>
<path d="M1712 1240 c0 -14 2 -19 5 -12 2 6 2 18 0 25 -3 6 -5 1 -5 -13z"/>
<path d="M1694 1172 c-9 -14 -8 -18 6 -18 11 0 15 6 12 18 -2 10 -5 18 -6 18
-1 0 -6 -8 -12 -18z"/>
<path d="M83 1100 c2 -8 0 -25 -4 -38 -5 -13 -5 -21 0 -18 14 9 19 43 9 57 -8
11 -9 11 -5 -1z"/>
<path d="M104 1089 c2 -15 -2 -36 -10 -48 -13 -17 -13 -20 -1 -15 12 4 14 -14
12 -105 -3 -111 -2 -114 31 -110 3 0 24 -19 47 -43 33 -34 42 -39 45 -25 2 9
7 15 11 13 4 -3 8 1 8 9 0 8 -5 15 -11 15 -6 0 -4 5 4 10 8 5 10 10 4 10 -6 0
-11 7 -11 15 0 8 4 12 9 9 4 -3 8 0 8 5 0 6 -4 11 -10 11 -5 0 -10 5 -10 11 0
5 6 7 13 3 7 -5 6 0 -3 11 -11 14 -12 17 -1 11 10 -6 12 -5 7 5 -3 8 -9 22
-12 32 -4 9 -10 17 -15 17 -5 0 -8 3 -8 8 1 4 0 12 -1 17 -7 25 -4 61 5 67 6
5 4 8 -5 8 -8 0 -32 16 -52 35 -21 18 -38 31 -38 27 0 -4 -5 0 -10 8 -8 11 -9
9 -6 -11z"/>
<path d="M1775 1100 c-3 -5 0 -10 7 -10 10 0 9 -3 -2 -11 -12 -8 -12 -10 -1
-7 8 2 15 12 17 21 2 19 -11 23 -21 7z"/>
<path d="M1750 1089 c0 -7 -3 -9 -7 -6 -3 4 -16 -4 -27 -16 -12 -13 -27 -22
-34 -19 -8 2 -12 -7 -12 -26 0 -17 -6 -33 -12 -35 -10 -4 -10 -6 0 -6 18 -1
15 -21 -6 -40 -18 -15 -22 -29 -22 -68 0 -10 0 -44 0 -75 0 -31 4 -59 9 -62 4
-3 24 11 44 30 19 20 41 36 49 38 22 3 39 17 33 27 -4 5 0 9 7 9 8 0 9 3 2 8
-14 9 -14 133 1 124 6 -4 6 -1 -1 9 -6 8 -10 36 -10 62 1 27 -2 51 -6 53 -5 3
-8 0 -8 -7z"/>
<path d="M397 1071 c-4 -17 -3 -21 5 -13 5 5 8 16 6 23 -3 8 -7 3 -11 -10z"/>
<path d="M1780 1056 c0 -2 7 -7 16 -10 8 -3 12 -2 9 4 -6 10 -25 14 -25 6z"/>
<path d="M1787 1009 c4 -13 8 -18 11 -10 2 7 -1 18 -6 23 -8 8 -9 4 -5 -13z"/>
<path d="M78 973 c7 -3 16 -2 19 1 4 3 -2 6 -13 5 -11 0 -14 -3 -6 -6z"/>
<path d="M496 562 c-8 -14 33 -93 59 -114 14 -11 24 -25 23 -31 -2 -14 24 -63
50 -94 19 -22 37 -28 97 -37 65 -9 105 -19 105 -25 0 -4 6 -8 13 -9 6 0 32 -8
56 -17 42 -15 45 -15 120 14 43 17 100 33 127 37 61 8 86 13 89 16 1 2 14 19
28 39 15 20 27 44 27 53 0 9 12 29 27 44 30 30 74 112 67 124 -3 5 -15 6 -27
3 -12 -3 -35 -8 -52 -10 -16 -2 -30 -4 -30 -5 0 -2 -16 -5 -57 -13 -33 -7 -88
-38 -88 -50 0 -4 -4 -5 -10 -2 -5 3 -10 2 -10 -3 0 -18 -45 -24 -174 -26 -110
-1 -132 1 -151 16 -13 10 -28 18 -34 18 -6 0 -11 5 -11 10 0 6 -6 10 -14 10
-8 0 -16 5 -18 11 -2 5 -15 12 -28 14 -14 2 -43 7 -65 11 -22 3 -48 7 -57 8
-10 1 -21 5 -24 9 -10 9 -32 9 -38 -1z"/>
</g>
</svg>
